<?xml version="1.0" encoding="utf-8"?>
<?xml-stylesheet type="text/xsl" href="rss1.xsl"?>
<rss version="2.0" xmlns:atom="http://www.w3.org/2005/Atom" xmlns:content="http://purl.org/rss/1.0/modules/content/" xmlns:dc="http://purl.org/dc/elements/1.1/" xmlns:media="http://search.yahoo.com/mrss/">
<channel>
 <title>Getty</title>
 <link>http://www.gettyimg.com/</link>
 <atom:link href="http://www.gettyimg.com/" rel="self" type="application/rss+xml" />

 
                <item>
                <title><![CDATA[【MASTER &amp; MASTER RIP】MASTER - Shakira, Cardi B – Punteria (MasterRip AVC 4K) – 2024.mp4]]></title>
                <link><![CDATA[https://sharemania.us/threads/shakira-cardi-b-%E2%80%93-punteria-masterrip-avc-4k-%E2%80%93-2024-mp4.240893/]]></link>
                <description><![CDATA[<article>
<blockquote class="messageText SelectQuoteContainer ugc baseHtml">
<div style="text-align: center"><span style="font-family: 'Times New Roman'"><img src="https://i.imgur.com/ISM8iK4.jpeg" class="bbCodeImage LbImage" alt="[​IMG]" data-url="https://i.imgur.com/ISM8iK4.jpeg" style=""><br>
<span style="font-size: 15px"><br>
<div class="ToggleTriggerAnchor bbCodeSpoilerContainer">
<button type="button" class="button bbCodeSpoilerButton ToggleTrigger Tooltip JsOnly" data-target="> .SpoilerTarget"><span>Spoiler: <span class="SpoilerTitle">MediaInfo</span></span></button>
<div class="SpoilerTarget bbCodeSpoilerText">General<br>
Complete name : C:\Shakira, Cardi B – Punteria (MasterRip AVC 4K) – 2024.mp4<br>
Format : MPEG-4<br>
Format profile : Base Media / Version 2<br>
Codec ID : mp42 (mp42/mp41)<br>
File size : 1.15 GiB<br>
Duration : 3 min 9 s<br>
Overall bit rate mode : Variable<br>
Overall bit rate : 52.4 Mb/s<br>
Encoded date : UTC 2024-03-28 09:30:06<br>
Tagged date : UTC 2024-03-28 09:30:32<br>
TIM : 00:00:00:00<br>
TSC : 24<br>
TSZ : 1<br>
<br>
Video<br>
ID : 1<br>
Format : AVC<br>
Format/Info : Advanced Video Codec<br>
Format profile : High@L5.1<br>
Format settings : CABAC / 1 Ref Frames<br>
Format settings, CABAC : Yes<br>
Format settings, Reference frames : 1 frame<br>
Format settings, GOP : M=1, N=30<br>
Codec ID : avc1<br>
Codec ID/Info : Advanced Video Coding<br>
Duration : 3 min 9 s<br>
Bit rate : 52.1 Mb/s<br>
Width : 3 840 pixels<br>
Height : 2 160 pixels<br>
Display aspect ratio : 16:9<br>
Frame rate mode : Constant<br>
Frame rate : 24.000 FPS<br>
Color space : YUV<br>
Chroma subsampling : 4:2:0<br>
Bit depth : 8 bits<br>
Scan type : Progressive<br>
Bits/(Pixel*Frame) : 0.262<br>
Stream size : 1.15 GiB (99%)<br>
Language : English<br>
Encoded date : UTC 2024-03-28 09:30:06<br>
Tagged date : UTC 2024-03-28 09:30:06<br>
Codec configuration box : avcC<br>
<br>
Audio<br>
ID : 2<br>
Format : AAC LC<br>
Format/Info : Advanced Audio Codec Low Complexity<br>
Codec ID : mp4a-40-2<br>
Duration : 3 min 9 s<br>
Source duration : 3 min 9 s<br>
Bit rate mode : Variable<br>
Bit rate : 317 kb/s<br>
Maximum bit rate : 413 kb/s<br>
Channel(s) : 2 channels<br>
Channel layout : L R<br>
Sampling rate : 48.0 kHz<br>
Frame rate : 46.875 FPS (1024 SPF)<br>
Compression mode : Lossy<br>
Stream size : 7.16 MiB (1%)<br>
Source stream size : 7.16 MiB (1%)<br>
Language : English<br>
Encoded date : UTC 2024-03-28 09:30:06<br>
Tagged date : UTC 2024-03-28 09:30:06</div>
</div><br>
<div class="bbCodeBlock bbCodeVfcHH HiddenContent">
<div class="attribution type">Hidden Content:</div>
<blockquote>You must either reply or click 'Like' to see the hidden information contained here.</blockquote>
</div></span></span>​</div>
<div class="messageTextEndMarker">&nbsp;</div>
</blockquote>
</article>]]></description>
                <author><![CDATA[mariellisaa]]></author>
                </item>

                
                <item>
                <title><![CDATA[【Albums (lossy)】MP3 - Shakira - Audiobiografia (Grandes Éxitos) (2001) [MP3 320 kbits/44100 Hz][Rare]]]></title>
                <link><![CDATA[https://sharemania.us/threads/shakira-audiobiografia-grandes-%C3%89xitos-2001-mp3-320-kbits-44100-hz-rare.240892/]]></link>
                <description><![CDATA[<article>
<blockquote class="messageText SelectQuoteContainer ugc baseHtml">
<div style="text-align: center"><img src="https://i.ibb.co/fMyjSQv/capa.jpg" class="bbCodeImage LbImage" alt="[​IMG]" data-url="https://i.ibb.co/fMyjSQv/capa.jpg" style=""> ​</div><span style="font-family: 'Verdana'">01. Ciega, Sordomuda<br>
02. Ojos Así (MTV Unplugged)<br>
03. Estoy Aquí<br>
04. ¿Dónde Están Los Ladrones (MTV Unplugged)<br>
05. No Creo<br>
06. Pies Descalzos, Sueños Blancos<br>
07. Dónde Estás Corazón<br>
08. Octavo Día (MTV Unplugged)<br>
09. Un Poco De Amor<br>
10. Se Quiere, Se Mata<br>
11. Sombra de Ti (MTV Unplugged)<br>
12. Inevitable<br>
13. Moscas En La Casa (MTV Unplugged)<br>
14. Tú (MTV Unplugged)<br>
15. Te Necesito<br>
16. Si Te Vas (MTV Unplugged)<br>
17. Pienso En Ti<br>
18. Ojos Así (Pablo Flores Dance Version)*<br>
19. Moscas En La Casa (Dance Remix)*</span><br>
<div style="text-align: center"><br>
<div class="bbCodeBlock bbCodeVfcHH HiddenContent">
<div class="attribution type">Hidden Content:</div>
<blockquote>You must either reply or click 'Like' to see the hidden information contained here.</blockquote>
</div></div>
<div class="messageTextEndMarker">&nbsp;</div>
</blockquote>
</article>]]></description>
                <author><![CDATA[Fan Made]]></author>
                </item>

                </channel></rss>